<svg width="44" height="44" viewBox="0 0 44 44" fill="none" xmlns="http://www.w3.org/2000/svg">
<path d="M24.8307 19.1694C23.329 17.6683 21.2927 16.8251 19.1694 16.8251C17.0461 16.8251 15.0098 17.6683 13.5081 19.1694L7.84489 24.8307C6.34317 26.3324 5.49951 28.3692 5.49951 30.493C5.49951 32.6167 6.34317 34.6535 7.84489 36.1552C9.34661 37.6569 11.3834 38.5006 13.5071 38.5006C15.6309 38.5006 17.6677 37.6569 19.1694 36.1552L22.0001 33.3246" stroke="white" stroke-width="3.66667" stroke-linecap="round" stroke-linejoin="round"/>
<path d="M19.1692 24.8307C20.6709 26.3317 22.7072 27.175 24.8305 27.175C26.9538 27.175 28.9902 26.3317 30.4919 24.8307L36.155 19.1693C37.6567 17.6676 38.5004 15.6308 38.5004 13.5071C38.5004 11.3833 37.6567 9.34655 36.155 7.84483C34.6533 6.34311 32.6165 5.49945 30.4928 5.49945C28.369 5.49945 26.3322 6.34311 24.8305 7.84483L21.9999 10.6755" stroke="white" stroke-width="3.66667" stroke-linecap="round" stroke-linejoin="round"/>
</svg>
