<svg width="64" height="183" viewBox="0 0 64 183" fill="none" xmlns="http://www.w3.org/2000/svg">
<path d="M32.7746 1H33.7746V0H32.7746V1ZM32.7746 175H31.7746V176H32.7746V175ZM63.7071 175.707C64.0976 175.317 64.0976 174.683 63.7071 174.293L57.3431 167.929C56.9526 167.538 56.3195 167.538 55.9289 167.929C55.5384 168.319 55.5384 168.953 55.9289 169.343L61.5858 175L55.9289 180.657C55.5384 181.047 55.5384 181.681 55.9289 182.071C56.3195 182.462 56.9526 182.462 57.3431 182.071L63.7071 175.707ZM0 2H32.7746V0H0V2ZM31.7746 1V175H33.7746V1H31.7746ZM32.7746 176H63V174H32.7746V176Z" fill="#E69D37"/>
</svg>
