<svg width="93" height="62" viewBox="0 0 93 62" fill="none" xmlns="http://www.w3.org/2000/svg">
<path d="M62.0507 61H61.0507V62H62.0507V61ZM62.0507 8H63.0507V7H62.0507V8ZM0.292893 7.29289C-0.0976311 7.68342 -0.0976311 8.31658 0.292893 8.70711L6.65685 15.0711C7.04738 15.4616 7.68054 15.4616 8.07107 15.0711C8.46159 14.6805 8.46159 14.0474 8.07107 13.6569L2.41421 8L8.07107 2.34315C8.46159 1.95262 8.46159 1.31946 8.07107 0.928932C7.68054 0.538408 7.04738 0.538408 6.65685 0.928932L0.292893 7.29289ZM93 60H62.0507V62H93V60ZM63.0507 61V8H61.0507V61H63.0507ZM62.0507 7H1V9H62.0507V7Z" fill="#E69D37"/>
</svg>
